<svg width="180" height="91" viewBox="0 0 180 91" xmlns="http://www.w3.org/2000/svg" xmlns:xlink="http://www.w3.org/1999/xlink"><title>Graphics/logo/cha-ching</title><defs><path id="a" d="M.416.591h122.797v89.504H.416V.591z"/><path id="c" d="M37.802.287v56.86H.112V.287h37.69z"/></defs><g fill="none" fill-rule="evenodd"><path d="M141.221 25.9s-.847-.056-1.615.171c-.983.297-1.428 1.3-.267 2.448 1.162 1.15 2.612 1.661 4.331 1.146 1.72-.516 1.302-2.023.63-2.687a823.32 823.32 0 0 0-3.87-3.754c1.242-.952 4.376-1.236 4.376-1.236l2.25 2.219s-.668-.167-1.71.145c-1.035.31-1.33 1.317-.231 2.407 1.286 1.27 2.579 1.672 4.082 1.22 1.502-.45 2.144-1.51 1.041-2.596-1.101-1.09-6.105-6.012-6.587-6.525-1.537.144-3.285.44-5.156 1.002-.96.29-1.842.69-2.44 1.01l5.166 5.03zm-2.617-4.52c1.626-.856 4.207-1.366 4.207-1.366l1.388 1.368c-2.145.17-4.558 1.026-4.558 1.026l-1.037-1.028z" fill="#FEFEFE"/><path d="M142.692 19.63l5.067 4.93s-.755-.36-2.058-.042c-2.578.63.76 4.266 3.496 3.136 1.17-.488 1.53-1.51.213-2.665-1.328-1.157-5.645-5.615-5.645-5.615" fill="#151416"/><path d="M145.394 25.75c.005.915 1.246 1.6 1.379.499.133-1.108-1.373-1.664-1.38-.499" fill="#FEFEFE"/><path d="M136.988 21.407l4.94 4.81s-.687-.29-1.985.032c-2.58.628.758 4.263 3.495 3.133 1.175-.486 1.534-1.512.212-2.666-1.329-1.157-5.644-5.614-5.644-5.614" fill="#151416"/><path d="M139.64 27.476c0 .913 1.237 1.602 1.375.498.133-1.106-1.374-1.66-1.375-.498" fill="#FEFEFE"/><path d="M139.88 23.338c.679-.486 1.778-1.278 5.349-1.557l-.32-.308c-3.389.357-5.151 1.133-5.526 1.283.215.177.497.582.497.582m-3.365-2.372c1.6-.939 4.15-1.557 6.948-1.912.159.147.516.558.516.558-2.77.454-5.174 1.218-6.572 2.217-.251-.247-.892-.863-.892-.863m2.007 29.217s.316 1.443 1.741 1.485l.79 1.683s-.442-.083-1.283.059c-2.333.521-1.28 3.51 1.685 2.923 1.392-.275 1.911-1.154 1.466-2.305-.522-1.34-.97-2.36-.97-2.36s.663-.008 1.103-.624c.624-.885 1.576-.807 1.576-.807l1.138 2.191s-.233-.13-1.018.031c-.788.16-1.37.845-.976 1.758.438 1.007 1.625 1.385 2.797 1.076.871-.228 1.817-1.065 1.318-1.982-.493-.914-2.138-4.29-2.138-4.29s-2.035-.73-3.048.257c-.83.805-1.584 1.83-4.18.905" fill="#151416"/><path d="M140.556 51.394l1.12 2.562s-.287-.537-1.654-.26c-2.248.461-1.088 2.94 1.37 2.36 1.104-.264 1.539-.948 1.104-2.074-.439-1.13-1.16-2.628-1.16-2.628s.81.173 1.646-.75c.837-.923 1.836-.726 1.836-.726l1.606 2.954s-.402-.268-1.395-.106c-1.97.323-.861 2.857 1.377 2.21.962-.276 1.54-.944 1.006-1.76-.53-.815-2.048-3.937-2.048-3.937s-1.662-.762-2.812.74c-.882 1.16-2.715 1.08-3.504.615.333.933 1.508.8 1.508.8" fill="#F6AB40"/><path d="M139.264 54.637c-.22.611.354 1.205.858.309.502-.895-.63-.936-.858-.309m5.157-1.106c-.292.608.334 1.11.779.382.451-.726-.402-1.152-.779-.382" fill="#FEFEFE"/><g transform="translate(23.259 .076)"><mask id="b" fill="#fff"><use xlink:href="#a"/></mask><path d="M40.81 32.224c2.537-1.234 2.952-4.279 1.825-9.359 0 0 5.512 3.903 7.212 3.227 1.7-.67 6.365-9.143 6.365-9.143s-.253 7.515 4.174 7.609c4.418.094 17.492-14.076 17.492-14.076s-9.39 12.87-4.094 13.758C81.211 25.48 118.988.591 118.988.591s-18.337 19.41-14.714 20.668c3.622 1.262 18.939-5.14 18.939-5.14s-12.978 7.948-9.735 11.208c0 0-8.334 2.184-9.081 6.071-.747 3.889 17.65 1.674 17.65 1.674s-25.688 5.49-25.972 9.149c-.275 3.664 5.896 6.04 5.896 6.04s-11.212 1.893-11.919 4.596c-.705 2.704 8.57 6.122 8.57 6.122-1.53-.206-16.677-5.824-12.378 9.341 0 0-6.993-5.042-9.739-4.234-4.564 1.344-6.386 9.001-6.386 9.001s-3.824-10.082-9.574-8.802c-9.632 2.15-17.835 18.833-17.835 18.833s2.089-15.489-2.797-15.476C35.03 69.661.416 90.095.416 90.095s25.514-22.049 24.346-23.61c-1.168-1.562-19.078 4.09-19.078 4.09s18.377-10.256 17.274-13.591c-1.102-3.335-14.795-4.009-14.795-4.009s27.41-9.79 28.894-12.948c1.488-3.166-8.704-10.484-8.704-10.484s9.924 3.913 12.456 2.681" fill="#151416" mask="url(#b)"/></g><path d="M51.334 56.705s-4.649 6.413-16.321 11.311c0 0 15.176-5.746 18.01-3.895 2.838 1.847-20.658 19.962-20.658 19.962s26.294-17.162 32.06-17.04c5.77.122 3.102 13.348 3.102 13.348s8.428-13.77 15.718-15.184c7.29-1.411 10.249 6.6 10.249 6.6s2.636-5.709 5.89-6.535c3.262-.824 8.459 2.943 8.459 2.943s-4.013-9.087 6.511-9.54c0 0-13.055-5.722 5.215-9.194 0 0-8.399-3.363-4.19-7.13 4.21-3.768 22.637-6.062 22.637-6.062s-17.86 1.467-15.096-2.498c2.773-3.966 9.397-6.232 9.397-6.232-2.528-2.96 5.443-6.006 5.443-6.006s-10.754 3.433-13.356 1.151c-2.595-2.286 12.906-17.956 12.906-17.956s-28.57 20.077-38.837 21.648c-10.268 1.571-2.168-9.617-2.168-9.617S89.81 25.543 84.73 26.55c-5.083 1.014-5.883-6.512-5.883-6.512s-3.023 7.774-5.136 7.953c-2.114.176-5.032-1.33-5.032-1.33s1.775 11.934-10.202 6.662c0 0 5.433 4.865 4.242 7.69-1.194 2.828-27.302 11.789-27.302 11.789s16.381-1.676 15.917 3.903" fill="#69A1D6"/><path d="M91.521 29.06c3.839-.683 9.54 2.066 9.872 7.311l-2.336 2.202s-5.397 1.939-5.407 2.04c-.242-2.106-3.748-3.968-3.74 1.664.005 3.599 2.002 5.806 3.371 1.853l6.05-.84s.47 9.968-6.703 11.114c-5.1.819-9.97-4.71-9.845-13.151.124-8.442 5.56-11.633 8.738-12.194" fill="#151416"/><path d="M91.307 36.32c-3.858.531-2.932 11.09.323 10.984 1.755-.059 2.097-2.431 2.097-2.431l3.933.754s-.668 9.276-6.7 8.136c-10.34-1.958-9.386-21.927.193-23.925 6.347-1.327 6.038 7.712 6.038 7.712l-3.424 1.378s-.127-2.93-2.46-2.608" fill="#F6E657"/><path d="M90.158 30.708s-6.136 2.355-5.823 11.595c.317 9.242 6.017 11.238 8.122 10.824-1.566-.387-7.306-1.967-7.428-10.803-.128-8.831 5.129-11.616 5.129-11.616m2.202 5.202s1.657.49 1.813 2.17l.55-.252s-.144-1.551-2.363-1.918" fill="#FCC152"/><path d="M94.165 45.513s-.456 1.894-2.453 2.048c0 0 2.187.013 3.088-1.995l-.635-.053z" fill="#FCC152"/><path d="M72.835 39.535l2.464-.34s7.817.817 10.567.615l.245 4.18s-7.348-.156-10.613.688l-2.143-.438-.52-4.705z" fill="#151416"/><path d="M75.091 39.733s7.299.676 10.18.476c0 0-.216 2.345.017 3.22 0 0-7.062.11-9.699.575 0 0-.725-1.582-.498-4.271" fill="#F6E657"/><path d="M76.377 40.096s6.06.585 8.42.438c0 0-.056 1.567.117 2.22l-.688.051s-.338-1.504-.228-1.896c0 0-5.874-.19-7.045-.41l-.576-.403z" fill="#FCC152"/><path d="M113.07 25.265l-1.908-1.729-5.629 2.65.18 2.518-3.195-2.15-5.424 2.148s.716 5.383.46 12.87c-.26 7.493-1.585 13.014-1.585 13.014l6.74.888 2.26-2.622-.488 2.462 9.115 1.985s4.195-15.04-.526-32.034" fill="#151416"/><path d="M112.706 56.224s2.373-19.52-1.706-31.555l-4.845 1.885s.79 4.414.984 10.564l-3.888 1.173c-.074-3.727-.416-7.55-1.265-10.842l-4.256 1.515s1.982 12.583-1.023 25.165l5.44.566s.784-4.927 1.034-11.153l3.913-.113c-.174 3.697-.638 7.642-1.603 11.45l7.215 1.345z" fill="#F6E657"/><path d="M101.635 28.055l-3.267 1.13s1.868 14.434-.82 24.314l3.949.494-.05-.53-3.097-.364s2.435-12.655.583-23.592l2.744-.98-.042-.472zm9.041-2.46l-3.785 1.336s.79 5.239 1.126 10.56l-5.383 1.426.557.207 5.694-1.383s-.356-6.33-1.204-10.553l3.195-1.071-.2-.522zm-2.763 17.422s-.312 7.372-1.477 11.355l5.294.952.091-.657-4.586-.754s1.368-5.894 1.504-11.122l-.826.226z" fill="#FCC152"/><path d="M112.3 24.052l5.35-1.627 4.989 2.825s1.983 3.088 2.381 14.496c.395 11.407-1.785 18.21-1.785 18.21l-9.653-1.24s3.72-14.813-1.283-32.664" fill="#151416"/><path d="M113.204 24.339s4.407 14.46 1.5 32.056l7.256 1.036s2.051-20.064-4.69-34.207l-4.066 1.115z" fill="#F6E657"/><path d="M117.026 23.879l-3.129.944s4.39 12.752 1.473 30.952l4.42.588.099-.599-3.66-.629s2.576-15.272-1.521-29.82l2.541-.675-.223-.761z" fill="#FCC152"/><path d="M146.55 48.37l-.324.034c-.07-8.293-.922-16.23-1.847-22.47l3.63-9.578L142 13.132l-10.502 3.797.712 3.502-5.178-2.423-7.79 1.735c5.11 20.886 1.105 37.654 1.105 37.654l9.82 1.986.704-4.947 3.245 5.597 11.182 3.771 8.33-5.547-7.078-9.887z" fill="#151416"/><path d="M140.349 61.17l4.447 1.427s2.254-27.191-3.586-48.612l-8.855 3.513s2.522 9.748 3.152 16.7c0 0-3.147-9.139-8.985-15.445l-6.397 1.428s5.396 21.709 1.01 36.45l8.107 1.68s1.895-7.616.752-17.57c0 0 4.568 11.452 5.013 18.72l5.342 1.71" fill="#F6E657"/><path d="M126.216 19.692l-4.968.988s5.13 18.228 1.03 35.249l6.097 1.323.143-.957-4.998-1.029s3.362-20.835-1.13-33.878l4.515-.845-.69-.851zm7.303-1.352s3.107 10.449 2.814 18.06l1.067 1.603s.175-8.91-2.563-18.667l5.85-2.166-.06-1.48-7.108 2.65zm-3.511 20.904c.234.044 5.452 10.972 5.931 19.489l7.824 2.592-.05-1.359-6.694-2.005s-2.09-11.038-5.432-18.212l-1.579-.505z" fill="#FCC152"/><g transform="translate(141.275 8.085)"><mask id="d" fill="#fff"><use xlink:href="#c"/></mask><path d="M.18 30.532C-.11 21.909.006 4.329 11.902 1.17c11.894-3.16 21.405 2.356 24.11 13.22l-11.05 4.87-7.807 1.765s-.06-2.408-.416-3.687c0 0-.826 2.956-.719 6.928l11.806-5.356 8.826-.499s5.948 28.067-9.2 36.257C12.277 62.866.825 49.679.18 30.532" fill="#151416" mask="url(#d)"/></g><path d="M152.536 10.55c-14.656 3.643-14.455 52.721 5.863 53.444 9.711.346 14.402-20.235 10.674-35.853 0 0-9.526 4.119-13.937 6.296l1.731 7.288s3.464-.666 5.64-1.65c0 0 1.345 8.84-3.716 9.747-9.479 1.693-11.59-25.895-4.553-28.318 5.274-1.816 4.844 6.899 4.844 6.899l9.731-4.658s-4.165-16.203-16.277-13.195" fill="#F6E657"/><path d="M153.838 11.103c-2.515.138-12.27 4.832-10.49 26.63 1.78 21.798 11.45 25.356 15.441 25.43-2.617-.98-12.05-3.544-14.063-25.444-2.021-21.907 8.122-25.731 9.112-26.616m3.107 9.617c-.223-.063 2.885 1.385 3.031 6.301l1.389-.73s-.09-4.266-4.42-5.57m11.459 8.801l-11.99 5.351 1.223 5.808 1.109-.42-1.074-5.042 10.803-4.93zm-4.726 10.232c.168.166 1.515 8.932-4.814 10.886 5.003-1.345 7.135-4.782 6.24-11.203l-1.426.317z" fill="#FCC152"/><path d="M61.818 30.174l4.557-1.5 5.737 2.49s.865 15.234 4.821 23.232l-9.363-1.144-3.694-2.191-.474 2.105-8.002-.909s1.058-14.717 6.418-22.083" fill="#151416"/><path d="M64.703 43.77c.993-3.4 1.891-5.439 1.891-5.439.052 1.106.313 3.435.618 5.895-.82-.151-1.736-.319-2.51-.456m3.608 8.815l7.196.85c-3.864-9.87-4.458-22.108-4.458-22.108l-4.88-2.018C58.852 41.67 57.253 51.95 57.253 51.95l5.55.526c.235-1.595.515-3.094.82-4.48l4.106.263c.318 2.437.581 4.326.581 4.326" fill="#F6E657"/><path d="M66.488 29.972l3.88 1.563s.697 15.051 4.065 21.052l-5.339-.597-.034-.354 4.465.419s-3.42-9.02-3.592-20.226l-3.642-1.537.197-.32zm.009 7.564s-2.146 4.17-2.614 6.554l3.787.59-.382.2-4.3-.562s1.33-4.213 2.788-6.474l.72-.308zm-3.445 9.98s-.748 3.113-.87 4.278l-3.369-.395.022-.4 2.617.344s.686-3.153.96-3.924l.64.097z" fill="#FCC152"/><path d="M52.75 24.958L50 27.021c-.055-1.496-.113-2.53-.113-2.53L38.92 21.98l-5.143-.444s.353 3.828-.382 16.24c-.735 12.415-3.023 15.246-3.023 15.246l5.218 2.722 11.511-.323c.172-.401.33-.826.482-1.267l2.326 1.113 8.332-1.295c3.643-8.516 4.005-26.422 4.005-26.422l-9.498-2.592z" fill="#151416"/><path d="M53.788 26.043s.051 5.252-.389 11.693l-4.42-.724c.34-6.996-.104-11.84-.104-11.84l-9.068-2.305c1.28 25.505-3.225 31.995-3.225 31.995l9.919-.136c.973-3.955 1.598-7.868 1.992-11.49l4.423.02c-.432 3.908-1.073 7.836-2.029 11.02l6.746-1.1s3.195-10.47 3.459-25.044l-7.304-2.089z" fill="#F6E657"/><path d="M42.684 24.316c.227-.013 5.317 1.19 5.317 1.19s.364 8.939-.054 11.872l-.914.256s.71-6.596.18-11.55l-4.633-1.23.104-.538z" fill="#FCC152"/><path fill="#FCC152" d="M47.947 37.378l5.985.943-.675.17-6.344-.895z"/><path d="M54.8 26.968c.23-.015 5.274 1.549 5.274 1.549s.048 15.483-3.155 23.91l-4.91.744.323-.609 4.01-.576s3.031-6.166 3.079-23.075l-4.636-1.29.015-.653zm-7.202 15.768s-1.147 8.311-1.966 11.083l-7.271.052.244-.67 6.28.01s1.601-6.735 1.875-10.432l.838-.043z" fill="#FCC152"/><path d="M30.023 8.436c7.025.86 14.887 7.18 12.241 25.108l-11.25.206-7.754-1.132s1.938-6.657 1.236-9.84c0 0-2.935 3.072-3.811 11.023-.879 7.951-.042 9.775-.042 9.775s1.005-2.24 1.155-3.494l8.43-.261 10.72 2.737s-3.395 17.03-17.68 17.823C8.98 61.17-3.36 55.897.828 32.404 4.717 10.563 16.582 6.787 30.024 8.436" fill="#151416"/><path d="M28.866 9.017c11.588.504 13.764 12.447 12.543 23.95l-9.92.133s4.546-13.453-3.071-14.387c-7.6-.93-13.335 27.917-5.265 28.78 5.331.57 6.875-6.932 6.875-6.932l9.75 2.373s-4.295 18.62-19.02 16.44C-.193 56.271 10.169 8.206 28.867 9.017" fill="#F6E657"/><path d="M31.444 10.399s10.622 1.43 8.55 21.304l-6.126.043.274-1.232 4.832.09s2.719-15.372-7.53-20.205m7.091 32.868s-3.153 14.418-14.814 15.06c-1.715.093-4.62-.275-4.62-.275s14.005 2.34 18.265-14.987l1.169.202zM25.323 18.365s-5.719 4.543-6.982 15.248c-1.29 10.932 2.442 14.019 2.442 14.019s-4.962-2.753-3.494-14.224c1.47-11.479 8.034-15.043 8.034-15.043" fill="#FCC152"/><path d="M80.966 19.44s-1.62 1.688.019 2.651l-1.38 2.238s-.408-.37-1.61-.761c-3.488-.97-6.358 2.784-2.024 4.086 2.032.614 3.862.046 4.92-1.425C82.117 24.512 83 23.176 83 23.176s.795.419 2.17.066c1.957-.506 2.985.187 2.985.187l-1.668 2.987s-.107-.284-1.251-.624c-1.158-.343-2.797-.013-3.586 1.178-.873 1.319.026 2.469 1.843 2.91 1.347.323 3.628.075 4.299-1.19.668-1.258 3.374-5.791 3.374-5.791s-1.415-2.067-3.984-1.7c-2.094.297-4.404.865-6.215-1.759" fill="#FEFEFE"/><path d="M81.712 22l-2.199 3.35s.397-.738-1.613-1.33c-3.31-.972-5.344 2.324-1.625 3.308 1.682.442 3.137.019 4.177-1.423 1.038-1.443 2.246-3.449 2.246-3.449s.72.696 2.99.288c2.27-.413 3.185.432 3.185.432l-2.162 4.077s-.113-.536-1.517-1.007c-2.787-.934-4.967 2.389-1.411 3.16 1.529.332 3.135.017 3.627-1.164.495-1.182 2.994-5.364 2.994-5.364s-.926-1.86-4.364-1.051c-2.654.626-4.722-.637-5.017-1.627-.899 1.178.689 1.8.689 1.8" fill="#151416"/><path d="M75.705 24.503c-1.1.482-1.237 1.462.595.866 1.83-.599.537-1.363-.595-.866m7.655 2.181c-1.19.434-1.133 1.353.405.895 1.534-.458 1.11-1.447-.404-.895" fill="#FEFEFE"/><path fill="#151416" d="M163.405 6.747l1.523 4.808 6.194 1.205-6.201 1.183-1.564 4.8-1.52-4.808-6.197-1.207 6.207-1.18z"/><path fill="#FEFEFE" d="M163.397 8.962l.958 3.032 3.913.762-3.917.741-.98 3.029-.963-3.032-3.912-.762 3.915-.742z"/><path fill="#151416" d="M169.463 15.222l.957 3.012 3.883.757-3.89.742-.98 3.01-.953-3.017-3.88-.755 3.889-.742z"/><path fill="#FEFEFE" d="M169.456 17.21l.448 1.418 1.831.357-1.83.35-.463 1.418-.445-1.42-1.834-.357 1.834-.348z"/><path fill="#151416" d="M12.441 13.446l1.525 4.808 6.196 1.204-6.208 1.183-1.555 4.8-1.522-4.809-6.2-1.206 6.207-1.18z"/><path fill="#FEFEFE" d="M12.433 15.658l.96 3.033 3.914.763-3.92.743-.981 3.028-.963-3.03-3.907-.765 3.915-.741z"/><path fill="#151416" d="M18.01 21.36l.951 3.016 3.884.755-3.886.74-.977 3.009-.956-3.014-3.884-.76 3.893-.733z"/><path fill="#FEFEFE" d="M18 23.35l.45 1.419 1.831.356-1.832.349-.46 1.417-.449-1.42-1.828-.354 1.83-.349z"/><path fill="#151416" d="M76.67 61.07l.586 1.853 2.393.467-2.395.455-.604 1.853-.588-1.858-2.39-.46 2.393-.457z"/><path fill="#FEFEFE" d="M76.663 62.294l.274.874 1.13.221-1.13.211-.28.874-.28-.874-1.125-.219 1.125-.215z"/><path fill="#151416" d="M81.672 56.046l.956 3.015 3.882.756-3.889.738-.975 3.007-.953-3.01-3.884-.758 3.89-.739z"/><path fill="#FEFEFE" d="M81.664 58.035l.452 1.42 1.827.355-1.829.347-.463 1.42-.45-1.42-1.824-.357 1.828-.349zm16.499 1.925c.51.053 1.01.081 1.495.092 1.038.02 1.97-.05 2.776-.209l-.573-.554c-1.055.226-2.3.323-3.702.297-.127-.005-.25-.007-.375-.013.122.123.248.257.379.388m1.297 1.303c1.14 1.146 1.964 1.938 2.392 2.314.048.043.094.082.134.125a2.036 2.036 0 0 1-.31-.748c-.137-.781.351-1.383 1.318-1.617.285-.07.563-.118.844-.137l-.238-.226c-1.056.23-2.313.334-3.737.304-.133-.006-.268-.008-.403-.015m.546 5.957c-1.876-.042-3.583-1.443-3.798-2.625-.138-.779.355-1.385 1.316-1.621.29-.072.575-.117.856-.137l-2.035-1.996-.4-.38-1.328-1.317-.302-.295-.588-.578-1.038-1.016 1.634.287.822.147c.519.072 1.373.166 2.331.187 1.803.039 3.258-.197 4.327-.699l.452-.214.322.33c.035.035 3.447 3.515 4.741 4.645.982.857 1.063 1.582.953 2.04-.125.56-.597 1.028-1.33 1.33-.46.19-.953.282-1.467.271-1.14-.027-2.217-.551-2.934-1.224.325.513.34.952.269 1.262-.132.56-.606 1.034-1.332 1.332a3.64 3.64 0 0 1-1.471.271"/><path d="M101.655 58.36l3.573 3.452s-.758-.357-2.059-.038c-2.574.627.758 4.263 3.493 3.132 1.175-.483 1.536-1.51.215-2.664-1.324-1.155-4.77-4.672-4.77-4.672m-7.917.42l5.572 5.465s-.756-.359-2.061-.045c-2.578.632.76 4.268 3.496 3.139 1.174-.487 1.538-1.513.217-2.669-1.329-1.156-5.646-5.614-5.646-5.614" fill="#151416"/><path d="M102.987 58.476c-3.02 1.206-7.912.386-7.912.386l-.87-.86s4.872.995 7.902-.432m2.581 2.594c-2.99 1.214-7.898.394-7.898.394l-.379-.38s4.841.987 7.87-.416" fill="#151416"/><path d="M103.229 62.893c-.002.915 1.24 1.602 1.38.497.127-1.105-1.376-1.66-1.38-.497M97.4 64.645c0 .912 1.24 1.597 1.377.496.13-1.104-1.378-1.66-1.378-.496M40.272 52.483l4.532 5.445s-1.715-.3-3.444.201c-4.7 1.36-.264 6.214 5.03 4.884 3.815-.96 2.879-3.178 1.636-4.655-1.244-1.478-3.754-4.28-4.244-4.9-.757-.957 4.045.655 3.313-1.219-.512-1.31 1.668-1.615 1.668-1.615s-4.952-1.689-5.05-.417c-.107 1.27-6.069-.924-3.441 2.276" fill="#FEFEFE"/><path d="M40.755 52.304l5.573 6.557s-1.678-.778-4.316-.269c-3.976.766-.663 4.685 3.44 3.918 4.107-.762 2.953-2.758 1.771-4.038-1.178-1.28-3.848-4.402-4.695-5.437-.849-1.044 4.261.506 3.776-1.008-.49-1.514.95-1.425.95-1.425s-2.907-1.053-2.803.061c.107 1.11-5.386-.437-3.696 1.641" fill="#151416"/><path d="M41.065 59.415c-1.336 1.174.754 1.963 2.325.652 1.559-1.314-1.29-1.564-2.325-.652" fill="#FEFEFE"/></g></svg>