<?xml version="1.0" encoding="UTF-8"?>
<svg width="536px" height="44px" viewBox="0 0 536 44" version="1.1" xmlns="http://www.w3.org/2000/svg" xmlns:xlink="http://www.w3.org/1999/xlink">
    <!-- Generator: Sketch 51.3 (57544) - http://www.bohemiancoding.com/sketch -->
    <title>title / future well kids</title>
    <desc>Created with Sketch.</desc>
    <defs></defs>
    <g id="04.-Design" stroke="none" stroke-width="1" fill="none" fill-rule="evenodd">
        <g id="0.0.0---Homepage-V1" transform="translate(-29.000000, -191.000000)">
            <g id="logo-/-future-well-kids" transform="translate(29.000000, 191.000000)">
                <path d="M0.396904272,42.4563034 L0.396904272,2.39566464 C0.396904272,1.79051904 0.881020752,1.245888 1.54668091,1.245888 L26.1761068,1.245888 C26.841767,1.245888 27.3258835,1.79051904 27.3258835,2.39566464 L27.3258835,7.35785856 C27.3258835,7.96300416 26.841767,8.5076352 26.1761068,8.5076352 L8.26379707,8.5076352 L8.26379707,19.8843725 L23.2108934,19.8843725 C23.816039,19.8843725 24.36067,20.4290035 24.36067,21.0341491 L24.36067,25.996343 C24.36067,26.6014886 23.816039,27.1461197 23.2108934,27.1461197 L8.26379707,27.1461197 L8.26379707,42.4563034 C8.26379707,43.061449 7.71916603,43.60608 7.11402043,43.60608 L1.54668091,43.60608 C0.881020752,43.60608 0.396904272,43.061449 0.396904272,42.4563034 Z M34.0821561,27.5697216 L34.0821561,2.39566464 C34.0821561,1.79051904 34.6267872,1.245888 35.2319328,1.245888 L40.980816,1.245888 C41.6464761,1.245888 42.1305926,1.79051904 42.1305926,2.39566464 L42.1305926,27.1461197 C42.1305926,32.2898573 45.6404371,36.3443328 50.9052038,36.3443328 C56.1699705,36.3443328 59.7403296,32.2898573 59.7403296,27.2066342 L59.7403296,2.39566464 C59.7403296,1.79051904 60.224446,1.245888 60.8901062,1.245888 L66.6389894,1.245888 C67.244135,1.245888 67.788766,1.79051904 67.788766,2.39566464 L67.788766,27.5697216 C67.788766,36.7679347 60.4665043,44.2112256 50.9052038,44.2112256 C41.4044179,44.2112256 34.0821561,36.7679347 34.0821561,27.5697216 Z M84.0458246,42.4563034 L84.0458246,8.5076352 L74.7870969,8.5076352 C74.1214368,8.5076352 73.6373203,7.96300416 73.6373203,7.35785856 L73.6373203,2.39566464 C73.6373203,1.79051904 74.1214368,1.245888 74.7870969,1.245888 L101.23196,1.245888 C101.89762,1.245888 102.381736,1.79051904 102.381736,2.39566464 L102.381736,7.35785856 C102.381736,7.96300416 101.89762,8.5076352 101.23196,8.5076352 L91.973232,8.5076352 L91.973232,42.4563034 C91.973232,43.061449 91.4286009,43.60608 90.8234553,43.60608 L85.1956012,43.60608 C84.5904556,43.60608 84.0458246,43.061449 84.0458246,42.4563034 Z M108.230291,27.5697216 L108.230291,2.39566464 C108.230291,1.79051904 108.774922,1.245888 109.380067,1.245888 L115.12895,1.245888 C115.794611,1.245888 116.278727,1.79051904 116.278727,2.39566464 L116.278727,27.1461197 C116.278727,32.2898573 119.788571,36.3443328 125.053338,36.3443328 C130.318105,36.3443328 133.888464,32.2898573 133.888464,27.2066342 L133.888464,2.39566464 C133.888464,1.79051904 134.37258,1.245888 135.038241,1.245888 L140.787124,1.245888 C141.392269,1.245888 141.9369,1.79051904 141.9369,2.39566464 L141.9369,27.5697216 C141.9369,36.7679347 134.614639,44.2112256 125.053338,44.2112256 C115.552552,44.2112256 108.230291,36.7679347 108.230291,27.5697216 Z M152.50559,42.4563034 L152.50559,2.39566464 C152.50559,1.79051904 152.989707,1.245888 153.655367,1.245888 L170.962531,1.245888 C178.224278,1.245888 184.154705,7.05528576 184.154705,14.2565184 C184.154705,19.8238579 180.463317,24.3624499 175.19855,26.4804595 L183.489045,41.8511578 C183.912647,42.637847 183.489045,43.60608 182.460298,43.60608 L176.106269,43.60608 C175.561638,43.60608 175.259065,43.3035072 175.138036,43.061449 L167.089599,27.0250906 L160.372483,27.0250906 L160.372483,42.4563034 C160.372483,43.061449 159.827852,43.60608 159.222707,43.60608 L153.655367,43.60608 C152.989707,43.60608 152.50559,43.061449 152.50559,42.4563034 Z M160.432998,20.5500326 L170.296871,20.5500326 C173.504143,20.5500326 176.287812,17.7663629 176.287812,14.3775475 C176.287812,11.1702758 173.504143,8.5076352 170.296871,8.5076352 L160.432998,8.5076352 L160.432998,20.5500326 Z M192.968473,42.4563034 L192.968473,2.39566464 C192.968473,1.79051904 193.452589,1.245888 194.11825,1.245888 L218.747676,1.245888 C219.413336,1.245888 219.897452,1.79051904 219.897452,2.39566464 L219.897452,7.35785856 C219.897452,7.96300416 219.413336,8.5076352 218.747676,8.5076352 L200.835366,8.5076352 L200.835366,18.432023 L215.782462,18.432023 C216.387608,18.432023 216.932239,18.9766541 216.932239,19.5817997 L216.932239,24.6045082 C216.932239,25.2701683 216.387608,25.7542848 215.782462,25.7542848 L200.835366,25.7542848 L200.835366,36.3443328 L218.747676,36.3443328 C219.413336,36.3443328 219.897452,36.8889638 219.897452,37.4941094 L219.897452,42.4563034 C219.897452,43.061449 219.413336,43.60608 218.747676,43.60608 L194.11825,43.60608 C193.452589,43.60608 192.968473,43.061449 192.968473,42.4563034 Z M249.930472,43.3640218 L238.49322,2.69823744 C238.251162,1.8510336 238.735279,1.245888 239.582483,1.245888 L245.149822,1.245888 C245.633939,1.245888 246.118055,1.66948992 246.239084,2.09309184 L252.532598,26.2384013 L252.774657,26.2384013 L262.396472,1.30640256 C262.517501,0.9433152 262.820074,0.6407424 263.425219,0.6407424 L264.514481,0.6407424 C265.119627,0.6407424 265.4222,0.9433152 265.543229,1.30640256 L275.225558,26.2384013 L275.467617,26.2384013 L281.640102,2.09309184 C281.761131,1.66948992 282.245247,1.245888 282.729364,1.245888 L288.296703,1.245888 C289.143907,1.245888 289.628024,1.8510336 289.385965,2.69823744 L277.948714,43.3640218 C277.827684,43.8481382 277.343568,44.2112256 276.859452,44.2112256 L275.891219,44.2112256 C275.346588,44.2112256 274.9835,43.9086528 274.862471,43.5455654 L264.030365,16.1324698 L263.727792,16.1324698 L253.016715,43.5455654 C252.835171,43.9086528 252.593113,44.2112256 251.987967,44.2112256 L251.019734,44.2112256 C250.535618,44.2112256 250.051501,43.8481382 249.930472,43.3640218 Z M296.626355,42.4563034 L296.626355,2.39566464 C296.626355,1.79051904 297.110471,1.245888 297.776131,1.245888 L322.405557,1.245888 C323.071217,1.245888 323.555334,1.79051904 323.555334,2.39566464 L323.555334,7.35785856 C323.555334,7.96300416 323.071217,8.5076352 322.405557,8.5076352 L304.493247,8.5076352 L304.493247,18.432023 L319.440344,18.432023 C320.045489,18.432023 320.59012,18.9766541 320.59012,19.5817997 L320.59012,24.6045082 C320.59012,25.2701683 320.045489,25.7542848 319.440344,25.7542848 L304.493247,25.7542848 L304.493247,36.3443328 L322.405557,36.3443328 C323.071217,36.3443328 323.555334,36.8889638 323.555334,37.4941094 L323.555334,42.4563034 C323.555334,43.061449 323.071217,43.60608 322.405557,43.60608 L297.776131,43.60608 C297.110471,43.60608 296.626355,43.061449 296.626355,42.4563034 Z M332.369101,42.4563034 L332.369101,2.39566464 C332.369101,1.79051904 332.853218,1.245888 333.518878,1.245888 L339.086218,1.245888 C339.691363,1.245888 340.235994,1.79051904 340.235994,2.39566464 L340.235994,36.3443328 L355.667207,36.3443328 C356.332867,36.3443328 356.816984,36.8889638 356.816984,37.4941094 L356.816984,42.4563034 C356.816984,43.061449 356.332867,43.60608 355.667207,43.60608 L333.518878,43.60608 C332.853218,43.60608 332.369101,43.061449 332.369101,42.4563034 Z M363.08914,42.4563034 L363.08914,2.39566464 C363.08914,1.79051904 363.573256,1.245888 364.238916,1.245888 L369.806256,1.245888 C370.411402,1.245888 370.956033,1.79051904 370.956033,2.39566464 L370.956033,36.3443328 L386.387245,36.3443328 C387.052906,36.3443328 387.537022,36.8889638 387.537022,37.4941094 L387.537022,42.4563034 C387.537022,43.061449 387.052906,43.60608 386.387245,43.60608 L364.238916,43.60608 C363.573256,43.60608 363.08914,43.061449 363.08914,42.4563034 Z" id="future-well-" fill="#222938"></path>
                <g id="kids-green" stroke-width="1" transform="translate(406.693440, 0.000000)" fill="#05B14C">
                    <path d="M0.649641629,42.1537306 L0.649641629,2.69823744 C0.649641629,1.91154816 1.25478723,1.245888 2.10199107,1.245888 L7.42727235,1.245888 C8.21396163,1.245888 8.87962179,1.91154816 8.87962179,2.69823744 L8.87962179,19.0371686 L24.1292909,1.8510336 C24.3713491,1.5484608 24.7344365,1.245888 25.2790675,1.245888 L31.3305235,1.245888 C32.4803002,1.245888 33.0854458,2.51669376 32.2987565,3.42441216 L16.5044563,21.2156928 L33.4485331,41.4880704 C34.0536787,42.2747597 33.5695623,43.60608 32.3592711,43.60608 L25.763184,43.60608 C25.1580384,43.60608 24.7949511,43.3640218 24.6739219,43.1824781 L8.87962179,23.6967898 L8.87962179,42.1537306 C8.87962179,42.9404198 8.21396163,43.60608 7.42727235,43.60608 L2.10199107,43.60608 C1.25478723,43.60608 0.649641629,42.9404198 0.649641629,42.1537306 Z" id="Path" fill-rule="nonzero"></path>
                    <path d="M40.2653204,42.4563034 L40.2653204,2.39566464 C40.2653204,1.79051904 40.8099514,1.245888 41.415097,1.245888 L47.0429511,1.245888 C47.6480967,1.245888 48.1927277,1.79051904 48.1927277,2.39566464 L48.1927277,42.4563034 C48.1927277,43.061449 47.6480967,43.60608 47.0429511,43.60608 L41.415097,43.60608 C40.8099514,43.60608 40.2653204,43.061449 40.2653204,42.4563034 Z" id="Path" fill-rule="nonzero"></path>
                    <path d="M59.3665632,42.4563034 L59.3665632,2.39566464 C59.3665632,1.79051904 59.8506797,1.245888 60.4558253,1.245888 L74.797776,1.245888 C86.4770861,1.245888 96.0383866,10.7466739 96.0383866,22.3654694 C96.0383866,34.1052941 86.4770861,43.60608 74.797776,43.60608 L60.4558253,43.60608 C59.8506797,43.60608 59.3665632,43.061449 59.3665632,42.4563034 Z M67.1729415,36.2233037 L74.0716013,36.2233037 C81.9384941,36.2233037 87.6873773,30.2928768 87.6873773,22.3654694 C87.6873773,14.4985766 81.9384941,8.56814976 74.0716013,8.56814976 L67.1729415,8.56814976 L67.1729415,36.2233037 Z" id="Combined-Shape" fill-rule="nonzero"></path>
                    <path d="M102.00797,39.4910899 C101.463339,38.9464589 101.160766,38.6438861 101.705397,37.6756531 L103.883921,33.9237504 C104.368038,33.0765466 105.396785,33.0765466 105.941416,33.5001485 C106.243989,33.6816922 111.145669,37.2520512 115.079115,37.2520512 C118.225872,37.2520512 120.58594,35.1945562 120.58594,32.5924301 C120.58594,29.5061875 117.983814,27.3881779 112.900591,25.3306829 C107.212222,23.0311296 101.523853,19.400256 101.523853,12.2595379 C101.523853,6.87374208 105.517814,0.6407424 115.139629,0.6407424 C121.312115,0.6407424 126.03225,3.78749952 127.242541,4.69521792 C127.847687,5.05830528 128.029231,6.0870528 127.605629,6.6921984 L125.306076,10.1415283 C124.821959,10.867703 123.914241,11.3518195 123.188066,10.867703 C122.703949,10.5651302 118.104843,7.53940224 114.776542,7.53940224 C111.327212,7.53940224 109.451261,9.83895552 109.451261,11.7754214 C109.451261,14.6196058 111.6903,16.5560717 116.591979,18.5530522 C122.461891,20.91312 129.239522,24.4229645 129.239522,32.2293427 C129.239522,38.4623424 123.853726,44.2112256 115.321173,44.2112256 C107.696339,44.2112256 103.218261,40.6408666 102.00797,39.4910899 Z" id="Path" fill-rule="nonzero"></path>
                </g>
            </g>
        </g>
    </g>
</svg>